<?xml version="1.0" encoding="UTF-8" standalone="no"?>
<svg width="202px" height="68px" viewBox="0 0 202 68" version="1.1" xmlns="http://www.w3.org/2000/svg" xmlns:xlink="http://www.w3.org/1999/xlink" xmlns:sketch="http://www.bohemiancoding.com/sketch/ns">
    <!-- Generator: Sketch 3.3.2 (12043) - http://www.bohemiancoding.com/sketch -->
    <title>Group</title>
    <desc>Created with Sketch.</desc>
    <defs></defs>
    <g id="Page-1" stroke="none" stroke-width="1" fill="none" fill-rule="evenodd" sketch:type="MSPage">
        <g id="Desktop-HD-Copy-5" sketch:type="MSArtboardGroup" transform="translate(-135.000000, -550.000000)">
            <g id="Group" sketch:type="MSLayerGroup" transform="translate(136.000000, 551.000000)">
                <rect id="Rectangle-4" stroke="#FFFFFF" sketch:type="MSShapeGroup" x="0" y="0" width="200" height="65.7142857" rx="2"></rect>
                <path d="M138.343791,46.4437761 L136.880893,47.8188649 C136.543719,48.0040772 136.207452,48.2191042 135.872091,48.3717915 C134.856039,48.8316602 133.822765,48.947305 132.904602,48.947305 C131.927524,48.947305 130.395741,48.8849653 128.834047,47.758332 C126.663266,46.2332664 125.714286,43.6140927 125.714286,41.3310116 C125.714286,36.6040309 129.57456,34.2857143 132.722419,34.2857143 C133.823672,34.2857143 134.953928,34.5603707 135.872998,35.1394981 C137.401155,36.1459691 137.796337,37.4551042 138.015681,38.1571042 L130.824459,41.0527413 L128.469682,41.2352432 C129.231948,45.1102471 131.862264,47.364417 134.769026,47.364417 C136.221048,47.364417 137.298734,46.8928031 138.287595,46.4049266 C138.286689,46.4058301 138.485186,46.302834 138.343791,46.4437761 L138.343791,46.4437761 Z M134.005854,38.7344247 C134.590469,38.5230116 134.8932,38.3396062 134.8932,37.9158764 C134.8932,36.6979923 133.51097,35.2921853 131.861358,35.2921853 C130.638651,35.2921853 128.345508,36.240834 128.345508,39.534 C128.345508,40.0480772 128.406236,40.595583 128.437959,41.1430888 L134.005854,38.7344247 L134.005854,38.7344247 Z" id="Shape" fill="#FFFFFF" sketch:type="MSShapeGroup"></path>
                <path d="M123.875567,46.3814517 C123.875567,47.5668108 124.08766,47.7511197 125.092836,47.8432741 C125.616724,47.9047104 126.138799,47.9327181 126.656342,47.993251 L125.525179,48.6645328 L120.134935,48.6645328 C120.841912,47.7502162 120.963367,47.6598687 120.963367,47.0500232 L120.963367,46.3697066 L120.951584,28.2432896 L118.571429,28.2432896 L120.861852,27.1428571 L125.236044,27.1428571 C124.28797,27.6894595 124.005179,28.0237452 123.882818,29.0898456 L123.875567,46.3814517 L123.875567,46.3814517 Z" id="Shape" fill="#FFFFFF" sketch:type="MSShapeGroup"></path>
                <path d="M114.263941,35.3888571 C114.965479,35.9643707 116.432003,37.1849653 116.432003,39.5023784 C116.432003,41.7601622 115.154913,42.8244556 113.866946,43.8318301 C113.471764,44.2284556 113.010417,44.6585097 113.010417,45.3234672 C113.010417,45.9974595 113.472671,46.3633668 113.805312,46.6362162 L114.91019,47.4863861 C116.253446,48.6166332 117.477966,49.6529189 117.477966,51.7580154 C117.477966,54.6265483 114.693565,57.517668 109.432027,57.517668 C104.999826,57.517668 102.857143,55.4143784 102.857143,53.1584015 C102.857143,52.0597761 103.404597,50.5048958 105.214638,49.4406023 C107.110786,48.2850579 109.680375,48.1305637 111.055354,48.0402162 C110.62573,47.4872896 110.135378,46.9081622 110.135378,45.9631274 C110.135378,45.4463398 110.291275,45.1382548 110.441734,44.7750579 C110.10728,44.8066795 109.770106,44.8392046 109.46375,44.8392046 C106.219814,44.8392046 104.3853,42.4269266 104.3853,40.0489807 C104.3853,38.6467876 105.027018,37.0919073 106.344895,35.9634672 C108.088771,34.5323629 110.168007,34.2857143 111.820339,34.2857143 L118.123309,34.2857143 L116.163714,35.3888571 L114.263941,35.3888571 L114.263941,35.3888571 Z M112.095879,48.9238147 C111.845718,48.8912896 111.695259,48.8912896 111.392527,48.8912896 C111.115175,48.8912896 109.462844,48.9509189 108.183034,49.379166 C107.505968,49.6258147 105.549093,50.3549189 105.549093,52.5214517 C105.549093,54.6825637 107.661866,56.2401544 110.93118,56.2401544 C113.866946,56.2401544 115.426827,54.8370579 115.426827,52.9478919 C115.42592,51.3930116 114.417119,50.5726564 112.095879,48.9238147 L112.095879,48.9238147 Z M112.975974,43.1307336 C113.682951,42.4278301 113.744585,41.4556911 113.744585,40.9027645 C113.744585,38.7100309 112.433052,35.2948958 109.890655,35.2948958 C109.097572,35.2948958 108.238324,35.6924247 107.750691,36.3049807 C107.234054,36.9401236 107.079063,37.7640927 107.079063,38.5564402 C107.079063,40.5982934 108.272766,43.9845174 110.901269,43.9845174 C111.667161,43.9845174 112.491967,43.6131892 112.975974,43.1307336 L112.975974,43.1307336 Z" id="Shape" fill="#FFFFFF" sketch:type="MSShapeGroup"></path>
                <path d="M96.0345651,48.8849653 C91.1727404,48.8849653 88.5714286,45.1102471 88.5714286,41.6942085 C88.5714286,37.7017529 91.8416492,34.2857143 96.4931936,34.2857143 C100.989747,34.2857143 103.805871,37.7948108 103.805871,41.4791815 C103.805871,45.0768185 101.022377,48.8849653 96.0345651,48.8849653 L96.0345651,48.8849653 Z M99.8594906,46.4184788 C100.599097,45.4427259 100.77856,44.2248417 100.77856,43.0376757 C100.77856,40.3525483 99.4951256,35.2316525 95.7019235,35.2316525 C94.6931221,35.2316525 93.6770696,35.6246641 92.9447142,36.2670347 C91.7501048,37.3340386 91.5371054,38.6738919 91.5371054,39.9893514 C91.5371054,43.0015367 93.029914,47.9697452 96.73701,47.9697452 C97.9343385,47.9697452 99.155233,47.3924247 99.8594906,46.4184788 L99.8594906,46.4184788 Z" id="Shape" fill="#FFFFFF" sketch:type="MSShapeGroup"></path>
                <path d="M80.3175603,48.8849653 C75.4548292,48.8849653 72.8571429,45.1102471 72.8571429,41.6942085 C72.8571429,37.7017529 76.1282699,34.2857143 80.7780015,34.2857143 C85.2718358,34.2857143 88.0852407,37.7948108 88.0852407,41.4791815 C88.086147,45.0768185 85.3062782,48.8849653 80.3175603,48.8849653 L80.3175603,48.8849653 Z M84.1433921,46.4184788 C84.8775603,45.4427259 85.0606491,44.2248417 85.0606491,43.0376757 C85.0606491,40.3525483 83.7735889,35.2316525 79.9840123,35.2316525 C78.9715853,35.2316525 77.9664094,35.6246641 77.2322412,36.2670347 C76.0358191,37.3340386 75.823726,38.6738919 75.823726,39.9893514 C75.823726,43.0015367 77.3228793,47.9697452 81.0236306,47.9697452 C82.2182401,47.9697452 83.4373217,47.3924247 84.1433921,46.4184788 L84.1433921,46.4184788 Z" id="Shape" fill="#FFFFFF" sketch:type="MSShapeGroup"></path>
                <path d="M69.7563745,48.1786409 L65.6559094,49.1137375 C63.994514,49.3748417 62.5026118,49.6052278 60.9227907,49.6052278 C53.0128086,49.6052278 50,43.801305 50,39.2604402 C50,33.7131042 54.2699583,28.5714286 61.5817293,28.5714286 C63.1289207,28.5714286 64.6181038,28.7982008 65.9740489,29.1659151 C68.1230769,29.7685328 69.1273465,30.5093822 69.7563745,30.9448571 L67.3744067,33.1999305 L66.3701371,33.4239923 L67.0861777,32.2856139 C66.1163506,31.3414826 64.3335003,29.5986795 60.9499821,29.5986795 C56.4262373,29.5986795 53.0128086,33.0264633 53.0128086,38.0308108 C53.0128086,43.405583 56.9102445,48.4614286 63.1588312,48.4614286 C64.995158,48.4614286 65.9405128,48.0937143 66.7988551,47.7503938 L66.7988551,43.1426718 L62.4699821,43.3748649 L64.7649374,42.146139 L70.8404055,42.146139 L70.0980799,42.8589807 C69.8968634,43.028834 69.8705784,43.0866564 69.8143828,43.314332 C69.7844723,43.5745328 69.7572809,44.4021158 69.7572809,44.6930347 L69.7572809,48.1786409 L69.7563745,48.1786409 Z" id="Shape" fill="#FFFFFF" sketch:type="MSShapeGroup"></path>
                <path d="M147.261477,46.6380232 L147.261477,54.4042934 L145.714286,54.4042934 L145.714286,34.6434903 L147.261477,34.6434903 L147.261477,36.8931429 C148.268466,35.4394517 150.110231,34.2857143 152.250195,34.2857143 C156.085997,34.2857143 158.670994,37.1867722 158.670994,41.7791351 C158.670994,46.3407799 156.085997,49.3023707 152.250195,49.3023707 C150.230779,49.3032741 148.421644,48.2651815 147.261477,46.6380232 L147.261477,46.6380232 Z M157.008692,41.7800386 C157.008692,38.3188263 155.198651,35.6788726 151.989158,35.6788726 C149.996027,35.6788726 148.089909,37.2409807 147.261477,38.6016139 L147.261477,44.9268417 C148.089909,46.2910888 149.996027,47.9092124 151.989158,47.9092124 C155.198651,47.9092124 157.008692,45.2466718 157.008692,41.7800386 L157.008692,41.7800386 Z" id="Shape" fill="#FFFFFF" sketch:type="MSShapeGroup"></path>
                <path d="M160,49.7598996 L160,30 L161.546285,30 L161.546285,49.7598996 L160,49.7598996 L160,49.7598996 Z" id="Shape" fill="#FFFFFF" sketch:type="MSShapeGroup"></path>
                <path d="M180.087803,52.7681004 C180.417726,52.9144633 180.982401,53.0057143 181.341327,53.0057143 C182.287588,53.0057143 182.946527,52.6199305 183.538393,51.2565869 L184.666837,48.7087876 L178.571429,34.2857143 L180.297177,34.2857143 L185.525179,46.7843861 L190.702424,34.2857143 L192.452645,34.2857143 L185.019419,51.7345251 C184.248089,53.5324402 183.034446,54.3970656 181.367612,54.3970656 C180.86729,54.3970656 180.208352,54.3076216 179.821327,54.1901699 L180.087803,52.7681004 L180.087803,52.7681004 Z" id="Shape" fill="#FFFFFF" sketch:type="MSShapeGroup"></path>
                <path d="M174.72903,48.9084556 C174.625702,48.4124479 174.547754,47.9760695 174.490652,47.6101622 C174.442614,47.2460618 174.416328,46.8738301 174.416328,46.4952741 C173.88519,47.2713591 173.1338,47.9173436 172.173943,48.4269035 C171.21318,48.9382703 170.301361,49.1903398 169.048744,49.1903398 C167.541433,49.1903398 166.372202,48.8208185 165.536519,48.0709344 C164.704462,47.3219537 164.285714,46.3073514 164.285714,45.0235135 C164.285714,43.7414826 164.892083,42.7006795 166.101194,41.9047181 C167.310306,41.1051429 168.873812,40.7085174 170.807122,40.7085174 L174.415422,40.7085174 L174.415422,38.9304788 C174.415422,37.9068417 174.064653,37.102749 173.36674,36.5182008 C172.665201,35.934556 171.680872,35.6382162 170.403782,35.6382162 C169.237271,35.6382162 168.291009,35.9083552 167.570437,36.4341776 C166.856209,36.9708417 166.497283,37.6357992 166.497283,38.4371815 L164.913836,38.4371815 L164.881206,38.3603861 C164.823198,37.2807336 165.319894,36.3320849 166.374015,35.5144402 C167.422697,34.6967954 168.798583,34.2857143 170.490795,34.2857143 C172.176662,34.2857143 173.541671,34.690471 174.57132,35.4981776 C175.599155,36.2977529 176.114885,37.4532973 176.114885,38.9639073 L176.114885,46.0209498 C176.114885,46.5277992 176.138451,47.0174826 176.202804,47.4945174 C176.268064,47.9724556 176.372297,48.4494903 176.510974,48.9102625 L174.72903,48.9102625 L174.72903,48.9084556 Z M169.239083,47.7845328 C170.553335,47.7845328 171.497783,47.4918069 172.463985,46.9126795 C173.422936,46.3362625 174.074623,45.5854749 174.417235,44.6765792 L174.417235,41.9300154 L170.791713,41.9300154 C169.406764,41.9300154 168.260193,42.23539 167.358344,42.8524633 C166.454683,43.4668263 165.996054,44.2103861 165.996054,45.0750116 C165.996054,45.8899459 166.286096,46.5431583 166.86346,47.0373591 C167.440825,47.5369807 168.231188,47.7845328 169.239083,47.7845328 L169.239083,47.7845328 Z" id="Shape" fill="#FFFFFF" sketch:type="MSShapeGroup"></path>
                <path d="M13.7782071,55.6643925 C13.2202899,55.5141124 12.8571429,54.9601997 12.8571429,54.103045 L12.8571429,25.8096285 C12.8571429,25.0157726 13.1646247,24.4803746 13.652043,24.2857143 L13.652043,24.2857143 L27.5560102,40.0532333 L13.7782071,55.6643925 L13.7782071,55.6643925 Z M15.6921881,55.063814 L32.4281768,45.5784174 L28.3518888,40.9557837 L15.6921881,55.063814 L15.6921881,55.063814 Z M32.5434223,34.4021667 L16.0406677,25.0467854 L28.3760198,39.1241084 L32.5434223,34.4021667 L32.5434223,34.4021667 Z M33.6631208,35.0369217 L40.1279913,38.701845 C41.3520372,39.3957543 41.3632311,40.5143285 40.1279913,41.214421 L33.4995659,44.97119 L29.1761465,40.0372271 L33.6631208,35.0369217 L33.6631208,35.0369217 Z" id="google-play" fill="#FFFFFF" sketch:type="MSShapeGroup"></path>
                <text id="Disponível-na" sketch:type="MSTextLayer" font-family="Panton" font-size="16" font-weight="normal" fill="#FFFFFF">
                    <tspan x="50" y="20">Disponível na</tspan>
                </text>
            </g>
        </g>
    </g>
</svg>