<?xml version="1.0" encoding="UTF-8" standalone="no"?>
<svg width="202px" height="68px" viewBox="0 0 202 68" version="1.1" xmlns="http://www.w3.org/2000/svg" xmlns:xlink="http://www.w3.org/1999/xlink" xmlns:sketch="http://www.bohemiancoding.com/sketch/ns">
    <!-- Generator: Sketch 3.3.3 (12081) - http://www.bohemiancoding.com/sketch -->
    <title>download-ios</title>
    <desc>Created with Sketch.</desc>
    <defs></defs>
    <g id="Page-1" stroke="none" stroke-width="1" fill="none" fill-rule="evenodd" sketch:type="MSPage">
        <g id="Desktop-HD-Copy-8" sketch:type="MSArtboardGroup" transform="translate(-365.000000, -550.000000)">
            <g id="download-ios" sketch:type="MSLayerGroup" transform="translate(366.000000, 551.000000)">
                <g id="Group-Copy" sketch:type="MSShapeGroup">
                    <rect id="Rectangle-3" stroke="#FFFFFF" x="0" y="0" width="200" height="65.7142857" rx="2"></rect>
                    <path d="M18.989157,11.4285714 C17.1804955,11.4285714 15.7142857,13.0308864 15.7142857,15.0151445 L15.7142857,52.1277126 C15.7142857,54.1085222 17.1788737,55.7142857 18.989157,55.7142857 L35.2965573,55.7142857 C37.1052188,55.7142857 38.5714286,54.1119707 38.5714286,52.1277126 L38.5714286,15.0151445 C38.5714286,13.0343349 37.1068406,11.4285714 35.2965573,11.4285714 L18.989157,11.4285714 L18.989157,11.4285714 Z M17.8571429,17.236534 L17.8571429,49.9063232 L36.4285714,49.9063232 L36.4285714,17.236534 L17.8571429,17.236534 L17.8571429,17.236534 Z M27.1428571,54.2622951 C27.9318354,54.2622951 28.5714286,53.6122167 28.5714286,52.8103044 C28.5714286,52.0083922 27.9318354,51.3583138 27.1428571,51.3583138 C26.3538789,51.3583138 25.7142857,52.0083922 25.7142857,52.8103044 C25.7142857,53.6122167 26.3538789,54.2622951 27.1428571,54.2622951 L27.1428571,54.2622951 Z M24.2857143,14.3325527 C24.2857143,14.7335088 24.53125,15.058548 24.8545129,15.058548 L29.4312014,15.058548 C29.7453402,15.058548 30,14.7217826 30,14.3325527 C30,13.9315966 29.7544643,13.6065574 29.4312014,13.6065574 L24.8545129,13.6065574 C24.5403741,13.6065574 24.2857143,13.9433228 24.2857143,14.3325527 Z" id="iPhone-Vector" fill="#FFFFFF"></path>
                    <path d="M62.0396598,44.4580428 L64.3926811,51.3863833 L67.4320003,51.3863833 L59.9154044,29.3594894 L56.483915,29.3594894 L49,51.3863833 L51.9412766,51.3863833 L54.2289362,44.4580428 L62.0396598,44.4580428 Z M54.8171916,42.2357449 L56.9741278,35.8629788 C57.3989788,34.5230639 57.7584682,33.183149 58.0852767,31.8759149 L58.1506384,31.8759149 C58.4774469,33.1504681 58.8042555,34.4577022 59.2944682,35.8956597 L61.4514044,42.2357449 L54.8171916,42.2357449 Z M69.3141768,57.8571919 L72.1574109,57.8571919 L72.1574109,49.262128 L72.2227726,49.262128 C73.1705173,50.8308088 75.0006449,51.7458727 77.0922194,51.7458727 C80.8178365,51.7458727 84.2820068,48.9353194 84.2820068,43.2488513 C84.2820068,38.4447661 81.4060919,35.2093618 77.5824322,35.2093618 C75.0006449,35.2093618 73.1378364,36.3531916 71.9613258,38.2813618 L71.8959641,38.2813618 L71.7652406,35.5688512 L69.1834534,35.5688512 C69.2488151,37.0721703 69.3141768,38.7062129 69.3141768,40.7324257 L69.3141768,57.8571919 Z M72.1574109,42.2357449 C72.1574109,41.8435747 72.2554534,41.4187236 72.353496,41.0592342 C72.9090704,38.902298 74.7391981,37.4970214 76.7000492,37.4970214 C79.7393684,37.4970214 81.4060919,40.2095321 81.4060919,43.3795747 C81.4060919,47.0071492 79.6413259,49.4908939 76.6020067,49.4908939 C74.543113,49.4908939 72.8110279,48.1182982 72.2881343,46.1247662 C72.2227726,45.7652768 72.1574109,45.3731066 72.1574109,44.9482556 L72.1574109,42.2357449 Z M86.7524386,57.8571919 L89.5956727,57.8571919 L89.5956727,49.262128 L89.6610344,49.262128 C90.6087791,50.8308088 92.4389068,51.7458727 94.5304813,51.7458727 C98.2560984,51.7458727 101.720269,48.9353194 101.720269,43.2488513 C101.720269,38.4447661 98.8443537,35.2093618 95.0206941,35.2093618 C92.4389068,35.2093618 90.5760983,36.3531916 89.3995876,38.2813618 L89.3342259,38.2813618 L89.2035025,35.5688512 L86.6217152,35.5688512 C86.6870769,37.0721703 86.7524386,38.7062129 86.7524386,40.7324257 L86.7524386,57.8571919 Z M89.5956727,42.2357449 C89.5956727,41.8435747 89.6937153,41.4187236 89.7917578,41.0592342 C90.3473323,38.902298 92.17746,37.4970214 94.1383111,37.4970214 C97.1776303,37.4970214 98.8443537,40.2095321 98.8443537,43.3795747 C98.8443537,47.0071492 97.0795877,49.4908939 94.0402685,49.4908939 C91.9813749,49.4908939 90.2492897,48.1182982 89.7263961,46.1247662 C89.6610344,45.7652768 89.5956727,45.3731066 89.5956727,44.9482556 L89.5956727,42.2357449 Z M108.948792,50.3079152 C110.125303,51.0922556 112.445643,51.7131918 114.569898,51.7131918 C119.766154,51.7131918 122.282579,48.7719152 122.282579,45.3731066 C122.282579,42.1377023 120.38709,40.3402555 116.661473,38.902298 C113.622154,37.7257874 112.282239,36.712681 112.282239,34.6537873 C112.282239,33.1504681 113.426069,31.3530213 116.432707,31.3530213 C118.426239,31.3530213 119.896877,32.0066383 120.615856,32.3988086 L121.400196,30.0784681 C120.419771,29.5228936 118.785728,29 116.530749,29 C112.249558,29 109.406324,31.5491064 109.406324,34.9805958 C109.406324,38.0852767 111.628622,39.9480853 115.223515,41.2226385 C118.197473,42.3664683 119.373984,43.5429789 119.373984,45.6018726 C119.373984,47.8241705 117.674579,49.3601705 114.765983,49.3601705 C112.805132,49.3601705 110.942324,48.7065535 109.667771,47.922213 L108.948792,50.3079152 Z M125.47199,31.7778724 L125.47199,35.5688512 L123.020926,35.5688512 L123.020926,37.7584682 L125.47199,37.7584682 L125.47199,46.386213 C125.47199,48.2490216 125.766118,49.6542982 126.583139,50.5040003 C127.269437,51.2883408 128.347905,51.7131918 129.68782,51.7131918 C130.798969,51.7131918 131.681352,51.5497876 132.236926,51.3210216 L132.106203,49.1640854 C131.746713,49.262128 131.191139,49.3601705 130.439479,49.3601705 C128.838118,49.3601705 128.282543,48.2490216 128.282543,46.2881705 L128.282543,37.7584682 L132.40033,37.7584682 L132.40033,35.5688512 L128.282543,35.5688512 L128.282543,31.0262128 L125.47199,31.7778724 Z M140.982082,35.2093618 C136.602847,35.2093618 133.138677,38.3140427 133.138677,43.6083406 C133.138677,48.6085109 136.439443,51.7458727 140.720635,51.7458727 C144.544294,51.7458727 148.59672,49.1967663 148.59672,43.3468938 C148.59672,38.5101278 145.52472,35.2093618 140.982082,35.2093618 L140.982082,35.2093618 Z M140.91672,37.366298 C144.315528,37.366298 145.655443,40.7651066 145.655443,43.4449364 C145.655443,47.0071492 143.59655,49.5889365 140.851358,49.5889365 C138.040805,49.5889365 136.047273,46.9744684 136.047273,43.5102981 C136.047273,40.5036597 137.517911,37.366298 140.91672,37.366298 L140.91672,37.366298 Z M151.067152,51.3863833 L153.910386,51.3863833 L153.910386,42.9547236 C153.910386,42.4645108 153.975748,42.0069789 154.041109,41.6148087 C154.433279,39.4578725 155.871237,37.9218725 157.89745,37.9218725 C158.28962,37.9218725 158.583748,37.9545533 158.877875,38.019915 L158.877875,35.3074043 C158.616428,35.2420426 158.387662,35.2093618 158.060854,35.2093618 C156.132684,35.2093618 154.400599,36.5492767 153.68162,38.6735321 L153.550896,38.6735321 L153.452854,35.5688512 L150.936428,35.5688512 C151.034471,37.0394895 151.067152,38.6408512 151.067152,40.5036597 L151.067152,51.3863833 Z M172.98269,44.0005109 C173.015371,43.7063832 173.080733,43.2488513 173.080733,42.6605959 C173.080733,39.7520002 171.708137,35.2093618 166.544562,35.2093618 C161.936562,35.2093618 159.126009,38.9676597 159.126009,43.739064 C159.126009,48.5104684 162.034605,51.7131918 166.904052,51.7131918 C169.420477,51.7131918 171.152563,51.1902982 172.165669,50.7327663 L171.675456,48.6738726 C170.596988,49.1314046 169.355116,49.4908939 167.296222,49.4908939 C164.420307,49.4908939 161.936562,47.8895322 161.871201,44.0005109 L172.98269,44.0005109 Z M161.903882,41.9416172 C162.132648,39.9480853 163.407201,37.2682554 166.315797,37.2682554 C169.551201,37.2682554 170.335541,40.1114895 170.30286,41.9416172 L161.903882,41.9416172 Z" id="App-Store" fill="#FFFFFF"></path>
                    <path d="M50.568,8.64 C50.328,8.64 50.248,8.72 50.248,8.96 L50.248,19.68 C50.248,19.92 50.328,20 50.568,20 L53.944,20 C56.888,20 58.584,18.4 58.584,15.776 L58.584,12.864 C58.584,10.24 56.888,8.64 53.944,8.64 L50.568,8.64 Z M57.416,15.776 C57.416,17.776 56.184,18.912 53.944,18.912 L51.4,18.912 L51.4,9.728 L53.944,9.728 C56.184,9.728 57.416,10.864 57.416,12.864 L57.416,15.776 Z M61,8.832 C60.552,8.832 60.408,8.976 60.408,9.424 L60.408,9.536 C60.408,9.984 60.552,10.128 61,10.128 L61.096,10.128 C61.544,10.128 61.688,9.984 61.688,9.536 L61.688,9.424 C61.688,8.976 61.544,8.832 61.096,8.832 L61,8.832 Z M60.792,11.776 C60.6,11.776 60.504,11.872 60.504,12.064 L60.504,19.712 C60.504,19.904 60.6,20 60.792,20 L61.304,20 C61.496,20 61.592,19.904 61.592,19.712 L61.592,12.064 C61.592,11.872 61.496,11.776 61.304,11.776 L60.792,11.776 Z M63.512,13.936 C63.512,14.72 63.8,15.296 64.168,15.616 C64.344,15.776 64.6,15.904 64.936,16.016 C65.576,16.224 65.928,16.272 66.744,16.352 C68.36,16.528 69.064,16.784 69.064,17.824 C69.064,18.8 68.312,19.28 66.808,19.28 C65.528,19.28 64.712,18.816 64.36,17.888 C64.28,17.712 64.152,17.664 63.976,17.712 L63.56,17.856 C63.352,17.92 63.304,18.048 63.384,18.24 C63.896,19.568 65.048,20.224 66.84,20.224 C69,20.224 70.12,19.312 70.12,17.776 C70.12,16.88 69.816,16.288 69.192,15.952 C68.568,15.632 67.976,15.488 67,15.408 C66.296,15.344 66.04,15.312 65.56,15.184 C64.888,15.008 64.648,14.672 64.584,13.904 C64.584,12.976 65.288,12.512 66.68,12.512 C68.008,12.512 68.616,12.912 68.984,13.728 C69.08,13.904 69.208,13.952 69.384,13.872 L69.784,13.696 C69.992,13.616 70.04,13.472 69.928,13.28 C69.416,12.112 68.328,11.536 66.664,11.536 C64.616,11.536 63.512,12.448 63.512,13.936 L63.512,13.936 Z M72.248,12 C71.736,12.208 71.608,12.384 71.608,12.896 L71.608,23.232 C71.608,23.424 71.704,23.52 71.896,23.52 L72.408,23.52 C72.6,23.52 72.696,23.424 72.696,23.232 L72.696,19.68 C73.608,20.048 74.408,20.224 75.096,20.224 C77.288,20.224 78.376,19.168 78.376,17.04 L78.376,14.736 C78.376,12.608 77.272,11.536 75.048,11.536 C73.96,11.536 73.032,11.696 72.248,12 L72.248,12 Z M77.304,17.008 C77.304,18.496 76.536,19.248 75.016,19.248 C74.248,19.248 73.48,19.056 72.696,18.688 L72.696,13.264 C72.696,13.008 72.728,12.944 73,12.832 C73.56,12.624 74.2,12.528 74.92,12.528 C76.504,12.528 77.304,13.28 77.304,14.768 L77.304,17.008 Z M79.976,17.296 C79.976,19.104 81.304,20.224 83.48,20.224 C85.672,20.224 87.016,19.136 87.016,17.296 L87.016,14.48 C87.016,12.64 85.672,11.536 83.48,11.536 C81.304,11.536 79.976,12.64 79.976,14.48 L79.976,17.296 Z M85.928,17.296 C85.928,18.512 85,19.248 83.48,19.248 C82.008,19.248 81.048,18.512 81.048,17.296 L81.048,14.48 C81.048,13.264 81.992,12.512 83.48,12.512 C85,12.512 85.928,13.264 85.928,14.48 L85.928,17.296 Z M89.432,12.08 C88.936,12.288 88.824,12.464 88.824,12.96 L88.824,19.712 C88.824,19.904 88.92,20 89.112,20 L89.624,20 C89.816,20 89.912,19.904 89.912,19.712 L89.912,13.28 C89.912,13.088 89.992,12.96 90.152,12.88 C90.808,12.64 91.528,12.528 92.28,12.528 C93.768,12.528 94.52,13.248 94.52,14.704 L94.52,19.712 C94.52,19.92 94.6,20 94.808,20 L95.304,20 C95.496,20 95.592,19.904 95.592,19.712 L95.592,14.672 C95.592,12.576 94.536,11.536 92.408,11.536 C91.304,11.536 90.312,11.712 89.432,12.08 L89.432,12.08 Z M96.92,10.096 C96.792,10.176 96.776,10.288 96.888,10.432 L97.016,10.608 C97.08,10.704 97.208,10.704 97.4,10.624 L99.704,9.184 C99.88,9.12 99.896,9.008 99.768,8.848 L99.528,8.56 C99.416,8.4 99.24,8.384 99,8.528 L96.92,10.096 Z M98.088,11.776 C97.88,11.776 97.8,11.856 97.8,12.064 L97.8,19.712 C97.8,19.92 97.88,20 98.088,20 L98.584,20 C98.824,20 98.872,19.92 98.872,19.712 L98.872,12.064 C98.872,11.856 98.824,11.776 98.584,11.776 L98.088,11.776 Z M107,11.776 C106.664,11.776 106.568,11.824 106.488,12.064 L104.312,17.36 C104.232,17.568 104.152,17.84 104.056,18.16 C103.96,18.496 103.896,18.688 103.88,18.736 L103.832,18.736 C103.816,18.688 103.752,18.496 103.656,18.16 C103.544,17.824 103.464,17.552 103.384,17.344 L101.192,12.064 C101.112,11.824 101.032,11.776 100.696,11.776 L100.328,11.776 C100.024,11.776 99.976,11.84 100.088,12.112 L103.288,19.776 C103.368,19.952 103.496,20.048 103.704,20.048 L104.008,20.048 C104.184,20.048 104.328,19.952 104.408,19.776 L107.608,12.096 C107.72,11.84 107.656,11.776 107.384,11.776 L107,11.776 Z M108.392,16.992 C108.392,18.992 109.544,20.224 111.864,20.224 C113.512,20.224 114.648,19.648 115.288,18.496 C115.416,18.288 115.384,18.144 115.176,18.032 L114.84,17.856 C114.664,17.76 114.504,17.792 114.376,17.968 C113.88,18.848 113.048,19.296 111.864,19.296 C110.312,19.296 109.464,18.496 109.464,17.104 L109.464,16.176 L115,16.176 C115.32,16.176 115.48,16.032 115.48,15.728 L115.48,14.848 C115.48,12.848 114.248,11.536 111.928,11.536 C109.624,11.536 108.392,12.784 108.392,14.912 L108.392,16.992 Z M114.408,15.344 L109.464,15.344 L109.464,14.784 C109.464,13.328 110.328,12.464 111.928,12.464 C113.544,12.464 114.408,13.328 114.408,14.784 L114.408,15.344 Z M118.312,8.448 C118.312,8.24 118.264,8.16 118.024,8.16 L117.528,8.16 C117.32,8.16 117.24,8.24 117.24,8.448 L117.24,19.712 C117.24,19.92 117.32,20 117.528,20 L118.024,20 C118.264,20 118.312,19.92 118.312,19.712 L118.312,8.448 Z M124.84,12.08 C124.344,12.288 124.232,12.464 124.232,12.96 L124.232,19.712 C124.232,19.904 124.328,20 124.52,20 L125.032,20 C125.224,20 125.32,19.904 125.32,19.712 L125.32,13.28 C125.32,13.088 125.4,12.96 125.56,12.88 C126.216,12.64 126.936,12.528 127.688,12.528 C129.176,12.528 129.928,13.248 129.928,14.704 L129.928,19.712 C129.928,19.92 130.008,20 130.216,20 L130.712,20 C130.904,20 131,19.904 131,19.712 L131,14.672 C131,12.576 129.944,11.536 127.816,11.536 C126.712,11.536 125.72,11.712 124.84,12.08 L124.84,12.08 Z M132.856,13.216 C132.76,13.424 132.808,13.552 133.016,13.632 L133.4,13.792 C133.544,13.872 133.688,13.824 133.8,13.664 C134.232,12.88 134.984,12.496 136.04,12.496 C137.656,12.496 138.2,13.296 138.2,14.688 L138.2,15.424 C137.24,15.312 136.536,15.264 136.104,15.264 C133.56,15.264 132.584,15.936 132.584,17.744 C132.584,18.592 132.824,19.216 133.32,19.616 C133.816,20.032 134.712,20.224 136.04,20.224 C137.176,20.224 138.056,20.08 138.696,19.808 C139.144,19.616 139.272,19.456 139.272,18.896 L139.272,14.704 C139.272,12.768 138.44,11.536 136.072,11.536 C134.52,11.536 133.448,12.096 132.856,13.216 L132.856,13.216 Z M138.2,18.608 C138.2,18.912 138.152,18.96 137.896,19.072 C137.416,19.248 136.776,19.328 135.96,19.328 C134.184,19.328 133.688,18.816 133.688,17.728 C133.688,16.624 134.312,16.16 135.992,16.16 C136.504,16.16 137.24,16.208 138.2,16.304 L138.2,18.608 Z" id="Disponível-na-Copy" fill="#FFFFFF"></path>
                </g>
            </g>
        </g>
    </g>
</svg>